<svg width="268" height="118" viewBox="0 0 268 118" fill="none" xmlns="http://www.w3.org/2000/svg">
<path d="M39.9 94.4C27.4333 94.4 18.2 90.8667 12.2 83.8C10.0667 81.2667 8.33333 77.9 7 73.7C5.66667 69.5 5 64.4 5 58.4C5 52.4 5.96667 47.0333 7.9 42.3C9.9 37.5 12.6 33.8 16 31.2C22.6 26.3333 30.5667 23.9 39.9 23.9C42.9 23.9 45.8333 24.1333 48.7 24.6C51.5667 25 53.7 25.4333 55.1 25.9L57.2 26.6L56.9 27.6C51.7 25.8 46.0333 24.9 39.9 24.9C32.8333 24.9 26.9333 27.2 22.2 31.8C18.6 35.2 16.0667 40.2 14.6 46.8C13.7333 50.5333 13.3 55.1 13.3 60.5C13.3 65.9 14.0667 70.9 15.6 75.5C17.1333 80.0333 18.8667 83.4 20.8 85.6C22.8 87.8 25.2 89.5667 28 90.9C30.8 92.1667 33.0333 92.9 34.7 93.1C36.3667 93.3 38.3333 93.4 40.6 93.4C42.9333 93.4 46.0333 93.1333 49.9 92.6V72H37.8V71H62.5V72H58.2V91.7C53.1333 93.5 47.0333 94.4 39.9 94.4Z" fill="#FFF2E7"/>
<path d="M78 59.7C78 47.5667 80.9333 38.3667 86.8 32.1C92.7333 25.7667 100.333 22.6 109.6 22.6C118.867 22.6 126.233 25.3333 131.7 30.8C137.233 36.2667 140 45 140 57C140 69 137.067 78.0667 131.2 84.2C125.333 90.3333 117.5 93.4 107.7 93.4C99.2333 93.4 92.3 90.9667 86.9 86.1C84.1 83.5667 81.9 80.0667 80.3 75.6C78.7667 71.0667 78 65.7667 78 59.7ZM109.3 23.6C102.567 23.6 97.0333 26.6 92.7 32.6C88.4333 38.6 86.3 47.4 86.3 59C86.3 70.6 88.3333 79.0667 92.4 84.4C96.4667 89.7333 101.867 92.4 108.6 92.4C115.4 92.4 120.933 89.4 125.2 83.4C129.533 77.3333 131.7 68.5667 131.7 57.1C131.7 45.5667 129.633 37.1 125.5 31.7C121.433 26.3 116.033 23.6 109.3 23.6ZM114.5 3.9L121.7 3.69999L111.2 18H109.9L114.5 3.9Z" fill="#FFF2E7"/>
<path d="M197.8 23V24H166.3V54H195.5V55H166.3V92H200V93H158V23H197.8Z" fill="#FFF2E7"/>
<path d="M259.9 27.2C253.833 24.8667 248.1 23.7 242.7 23.7C237.367 23.7 233.2 24.8333 230.2 27.1C227.2 29.3667 225.7 32.5 225.7 36.5C225.7 41.3667 228.233 45.1333 233.3 47.8C235.567 48.9333 238.033 50 240.7 51C243.433 51.9333 246.167 53 248.9 54.2C251.633 55.4 254.133 56.7667 256.4 58.3C258.667 59.8333 260.5 61.9667 261.9 64.7C263.3 67.3667 264 70.8 264 75C264 79.1333 262.833 82.6667 260.5 85.6C258.167 88.5333 255.333 90.5333 252 91.6C248.733 92.6 244.9 93.1 240.5 93.1C232.3 93.1 225.3 91.0667 219.5 87L220 86.2C222.2 87.9333 225.033 89.3667 228.5 90.5C232.033 91.5667 235.633 92.1 239.3 92.1C244.7 92.1 249.3 90.8667 253.1 88.4C256.967 85.8667 258.9 82.1667 258.9 77.3C258.9 71.9667 256.367 67.8 251.3 64.8C249.033 63.4667 246.533 62.2333 243.8 61.1C241.133 59.9667 238.433 58.8 235.7 57.6C232.967 56.3333 230.467 54.9333 228.2 53.4C223.133 50.0667 220.6 45.3333 220.6 39.2C220.6 34.3333 222.233 30.4 225.5 27.4C228.767 24.3333 233.667 22.8 240.2 22.8C246.8 22.8 253.5 23.9333 260.3 26.2L259.9 27.2Z" fill="#FFF2E7"/>
</svg>
