<svg width="134" height="121" viewBox="0 0 134 121" fill="none" xmlns="http://www.w3.org/2000/svg">
<ellipse cx="63.5" cy="60.5" rx="63.5" ry="60.5" fill="#5F3127"/>
<path d="M19.95 77.2C13.7167 77.2 9.1 75.4333 6.1 71.9C5.03333 70.6333 4.16667 68.95 3.5 66.85C2.83333 64.75 2.5 62.2 2.5 59.2C2.5 56.2 2.98333 53.5167 3.95 51.15C4.95 48.75 6.3 46.9 8 45.6C11.3 43.1667 15.2833 41.95 19.95 41.95C21.45 41.95 22.9167 42.0667 24.35 42.3C25.7833 42.5 26.85 42.7167 27.55 42.95L28.6 43.3L28.45 43.8C25.85 42.9 23.0167 42.45 19.95 42.45C16.4167 42.45 13.4667 43.6 11.1 45.9C9.3 47.6 8.03333 50.1 7.3 53.4C6.86667 55.2667 6.65 57.55 6.65 60.25C6.65 62.95 7.03333 65.45 7.8 67.75C8.56667 70.0167 9.43333 71.7 10.4 72.8C11.4 73.9 12.6 74.7833 14 75.45C15.4 76.0833 16.5167 76.45 17.35 76.55C18.1833 76.65 19.1667 76.7 20.3 76.7C21.4667 76.7 23.0167 76.5667 24.95 76.3V66H18.9V65.5H31.25V66H29.1V75.85C26.5667 76.75 23.5167 77.2 19.95 77.2Z" fill="#FFF2E7"/>
<path d="M37.4514 60.1975C37.4514 54.1308 38.918 49.5308 41.8514 46.3975C44.818 43.2308 48.618 41.6475 53.2514 41.6475C57.8847 41.6475 61.568 43.0141 64.3014 45.7475C67.068 48.4808 68.4514 52.8475 68.4514 58.8475C68.4514 64.8475 66.9847 69.3808 64.0514 72.4475C61.118 75.5141 57.2014 77.0475 52.3014 77.0475C48.068 77.0475 44.6014 75.8308 41.9014 73.3975C40.5014 72.1308 39.4014 70.3808 38.6014 68.1475C37.8347 65.8808 37.4514 63.2308 37.4514 60.1975ZM53.1014 42.1475C49.7347 42.1475 46.968 43.6475 44.8014 46.6475C42.668 49.6475 41.6014 54.0475 41.6014 59.8475C41.6014 65.6475 42.618 69.8808 44.6514 72.5475C46.6847 75.2141 49.3847 76.5475 52.7514 76.5475C56.1514 76.5475 58.918 75.0475 61.0514 72.0475C63.218 69.0141 64.3014 64.6308 64.3014 58.8975C64.3014 53.1308 63.268 48.8975 61.2014 46.1975C59.168 43.4975 56.468 42.1475 53.1014 42.1475ZM55.7014 32.2975L59.3014 32.1975L54.0514 39.3475H53.4014L55.7014 32.2975Z" fill="#FFF2E7"/>
<path d="M94.0628 42V42.5H78.3128V57.5H92.9128V58H78.3128V76.5H95.1628V77H74.1628V42H94.0628Z" fill="#FFF2E7"/>
<path d="M120.623 44.1C117.59 42.9333 114.723 42.35 112.023 42.35C109.357 42.35 107.273 42.9167 105.773 44.05C104.273 45.1833 103.523 46.75 103.523 48.75C103.523 51.1833 104.79 53.0667 107.323 54.4C108.457 54.9667 109.69 55.5 111.023 56C112.39 56.4667 113.757 57 115.123 57.6C116.49 58.2 117.74 58.8833 118.873 59.65C120.007 60.4167 120.923 61.4833 121.623 62.85C122.323 64.1833 122.673 65.9 122.673 68C122.673 70.0667 122.09 71.8333 120.923 73.3C119.757 74.7667 118.34 75.7667 116.673 76.3C115.04 76.8 113.123 77.05 110.923 77.05C106.823 77.05 103.323 76.0333 100.423 74L100.673 73.6C101.773 74.4667 103.19 75.1833 104.923 75.75C106.69 76.2833 108.49 76.55 110.323 76.55C113.023 76.55 115.323 75.9333 117.223 74.7C119.157 73.4333 120.123 71.5833 120.123 69.15C120.123 66.4833 118.857 64.4 116.323 62.9C115.19 62.2333 113.94 61.6167 112.573 61.05C111.24 60.4833 109.89 59.9 108.523 59.3C107.157 58.6667 105.907 57.9667 104.773 57.2C102.24 55.5333 100.973 53.1667 100.973 50.1C100.973 47.6667 101.79 45.7 103.423 44.2C105.057 42.6667 107.507 41.9 110.773 41.9C114.073 41.9 117.423 42.4667 120.823 43.6L120.623 44.1Z" fill="#FFF2E7"/>
<line x1="30" y1="89.5" x2="104" y2="89.5" stroke="#FFFBFB"/>
</svg>
